<svg version="1.1" id="Layer_1" xmlns="http://www.w3.org/2000/svg" xmlns:xlink="http://www.w3.org/1999/xlink" x="0px" y="0px"
	 width="100%" viewBox="0 0 480 480" enable-background="new 0 0 480 480" xml:space="preserve">

<path fill="#FFFFFF" opacity="1.000000" stroke="none" 
	d="
M391.893250,176.344177 
	C392.218842,178.087906 392.564972,179.828094 392.866608,181.575974 
	C394.583710,191.526688 396.274811,201.481918 398.008911,211.429657 
	C398.609283,214.873718 399.324524,218.297623 399.946442,221.738113 
	C400.063477,222.385468 400.174713,223.132706 399.970337,223.723816 
	C398.191986,228.866989 400.614349,233.945694 400.113159,239.121246 
	C399.603119,244.388229 400.221619,249.755905 399.914307,255.054459 
	C399.740509,258.050995 398.665100,260.990540 398.069275,263.970459 
	C397.908600,264.774017 397.786957,265.707825 398.035492,266.452271 
	C401.363037,276.419434 396.858185,286.078979 396.812225,295.933899 
	C396.780273,302.791718 395.380554,309.726562 393.894714,316.473450 
	C391.948975,325.308807 389.717621,334.125793 386.875000,342.707550 
	C383.480042,352.956848 380.405396,363.566620 375.161682,372.876678 
	C370.051849,381.948914 365.238373,391.249695 358.624329,399.720917 
	C350.594055,410.005981 342.163666,419.575989 331.916290,427.375183 
	C322.458649,434.573273 312.199829,440.456665 301.122742,445.301331 
	C286.919800,451.513184 272.070557,454.386871 257.103455,456.787750 
	C247.883957,458.266693 238.331131,457.922607 228.927750,457.927246 
	C219.846436,457.931732 210.702545,457.871155 201.703201,456.828613 
	C194.615982,456.007599 187.617294,453.948334 180.744690,451.887390 
	C174.381012,449.979065 168.248032,447.308136 161.993469,445.027832 
	C151.868698,441.336609 142.599762,435.877197 134.648178,428.859314 
	C124.486572,419.890930 114.737762,410.299591 105.908142,400.033142 
	C100.249702,393.453949 96.231171,385.353271 92.098839,377.603363 
	C87.838829,369.614044 83.954742,361.372131 80.628914,352.955200 
	C78.426949,347.382446 77.638687,341.265900 75.954880,335.469086 
	C74.584457,330.751129 72.664543,326.192596 71.299103,321.473450 
	C70.538925,318.846191 70.475883,316.024048 69.991676,313.308838 
	C68.360397,304.161224 66.279655,295.071655 65.144501,285.864502 
	C64.198326,278.190094 64.331581,270.381927 64.001793,262.632385 
	C63.658401,254.563324 62.914734,246.483719 63.103153,238.426422 
	C63.351913,227.788788 64.126320,217.149277 65.084503,206.547607 
	C65.676590,199.996613 66.935478,193.497482 68.093765,187.010544 
	C68.505516,184.704544 69.503990,182.503311 70.802452,180.367950 
	C74.965919,180.081116 77.575554,175.144821 76.964302,169.664368 
	C77.422554,168.250443 77.825478,167.176971 78.553329,166.008682 
	C79.091728,165.134903 79.305199,164.355942 79.582153,163.260483 
	C79.814003,162.320984 79.982361,161.697968 80.490227,160.997284 
	C81.370712,159.463577 81.911682,158.007584 82.539566,156.200928 
	C85.079613,150.897339 87.532745,145.944397 90.338928,140.947754 
	C91.096741,139.901962 91.501495,138.899887 92.052765,137.595184 
	C93.772354,135.171371 95.345406,133.050217 97.312912,130.969391 
	C102.054146,128.231323 106.852898,125.960388 110.656731,122.572403 
	C119.481064,114.712784 127.816315,106.304649 136.382416,98.153130 
	C136.954254,97.608978 137.810318,97.370758 138.515594,96.958435 
	C145.345764,92.965340 152.284424,89.142433 158.958405,84.903038 
	C163.161041,82.233475 166.965652,78.937325 171.251587,75.756851 
	C174.368805,74.388344 177.183258,73.185249 180.225006,72.247711 
	C190.452454,71.656570 200.482986,69.831886 210.446442,70.144531 
	C231.231003,70.796715 251.975372,72.665268 272.748871,73.804115 
	C275.945312,73.979362 279.208710,72.932304 282.768616,72.546036 
	C284.376282,73.138588 285.656525,73.635628 287.013916,74.471207 
	C288.106842,75.165230 289.122589,75.520721 290.410309,75.942963 
	C291.130554,76.326355 291.578827,76.643005 292.059998,77.311462 
	C292.851257,77.993263 293.609680,78.323265 294.544983,78.702728 
	C294.721924,78.752182 295.041687,78.933136 295.070923,79.285179 
	C296.070618,80.087570 297.041077,80.537910 298.005798,80.994125 
	C298.000000,81.000000 298.010803,80.986511 298.040283,81.329018 
	C298.799866,82.041504 299.529968,82.411484 300.553833,82.890747 
	C301.928345,83.959091 303.009094,84.918167 304.081970,86.186295 
	C304.980652,86.957130 305.887146,87.418907 307.049896,87.818588 
	C307.429291,87.631119 307.552490,87.505753 307.800415,87.229202 
	C307.925140,87.078033 307.704559,87.402016 307.695190,87.743347 
	C310.366791,91.070435 313.047760,94.056190 315.777954,97.326996 
	C316.563110,98.400261 317.299011,99.188477 318.253967,100.135010 
	C318.742584,100.756393 319.012177,101.219460 319.221680,102.037720 
	C319.821320,102.893761 320.481018,103.394615 321.336945,104.032097 
	C321.770111,104.395660 321.929626,104.667961 321.989502,105.342453 
	C322.658386,106.457092 323.349518,107.214890 324.283325,108.167053 
	C325.145325,109.443542 325.764679,110.525665 326.289124,111.956879 
	C326.807861,112.861153 327.421478,113.416351 328.017761,113.985931 
	C328.000427,114.000305 328.031647,113.969246 328.002747,114.340378 
	C329.021545,116.114960 330.069214,117.518410 331.205627,119.090866 
	C331.294342,119.259880 331.447845,119.609436 331.293762,119.983032 
	C330.227386,120.799530 329.218964,121.751648 328.418732,121.600639 
	C324.029358,120.772392 319.716400,119.539719 315.327393,118.709038 
	C311.588745,118.001442 307.782745,117.649658 303.682373,117.109528 
	C302.934174,116.987556 302.510193,116.896523 301.992310,116.470383 
	C299.598969,115.757355 297.299500,115.379440 294.682861,114.980453 
	C293.955963,114.854355 293.546204,114.749329 293.013184,114.323143 
	C291.075256,113.323509 289.305054,112.315788 287.432983,112.063232 
	C285.712616,111.831139 283.882568,112.412277 281.758606,112.680222 
	C280.997101,112.561310 280.577881,112.397324 280.149109,111.908112 
	C278.092377,111.060120 276.045197,110.537354 273.681030,109.989395 
	C272.953217,109.861801 272.542389,109.759392 272.003967,109.326431 
	C266.959778,107.697586 262.068481,106.284531 257.106567,105.192139 
	C256.039673,104.957260 253.850067,105.626564 253.649582,106.310684 
	C251.937241,112.154137 250.564346,118.097054 249.022171,124.338257 
	C247.652771,126.388969 246.351089,128.111649 244.971893,129.868729 
	C244.894409,129.903152 244.917084,130.071228 244.492661,130.038116 
	C240.256531,129.353348 236.434341,128.121246 232.635666,128.189926 
	C227.309677,128.286194 222.005661,129.390396 216.683716,129.987442 
	C212.617996,130.443604 208.269989,130.019089 204.525070,131.340088 
	C197.858276,133.691727 191.299881,136.626099 185.166489,140.138138 
	C178.866974,143.745300 172.260773,147.514542 167.364853,152.700714 
	C161.087189,159.350510 156.459244,167.542007 150.983521,174.968262 
	C142.820801,186.038635 139.093918,198.971054 135.744690,211.951187 
	C133.827942,219.379593 133.236893,227.146973 131.980179,234.750351 
	C131.491974,237.704163 130.351120,240.626907 130.352875,243.563309 
	C130.354660,246.516037 131.813400,249.461304 131.863342,252.422821 
	C131.899170,254.547058 130.055298,256.717712 130.141449,258.822998 
	C130.276276,262.118805 131.644135,265.349609 131.933807,268.656677 
	C132.494080,275.053070 133.013138,281.488434 132.919968,287.898499 
	C132.776901,297.739410 136.251953,306.858734 137.743286,316.338318 
	C138.909363,323.750549 141.471573,330.519897 144.054718,337.351562 
	C146.569016,344.001251 149.138000,350.718506 152.575790,356.910400 
	C158.024719,366.724579 164.372070,375.816376 172.754791,383.700470 
	C183.745087,394.037079 196.510086,400.820679 210.823456,403.638153 
	C219.979019,405.440369 229.520477,406.364563 239.342224,405.415710 
	C250.319519,404.355225 260.883240,403.116760 270.699554,398.004425 
	C275.385284,395.564056 280.076538,393.025757 284.382660,389.989258 
	C291.639587,384.871979 297.070984,377.956268 302.896393,371.274841 
	C310.378723,362.693085 314.592865,352.565948 319.352905,342.753265 
	C322.915710,335.408691 324.318542,326.993225 326.455872,318.993866 
	C327.124390,316.491760 326.867889,313.756836 327.354889,311.189178 
	C328.818390,303.473511 331.041901,295.850006 331.845367,288.074432 
	C332.826111,278.583160 332.911377,268.974426 332.926544,259.415741 
	C332.940186,250.850555 332.472595,242.275436 331.924652,233.723450 
	C331.734314,230.752960 330.549622,227.859467 330.025360,224.894318 
	C328.942413,218.769043 328.302948,212.549011 326.908722,206.499863 
	C325.582275,200.744751 324.281281,194.770691 321.621155,189.584274 
	C317.266968,181.095047 311.820160,173.166245 307.066284,164.725739 
	C309.300018,163.900497 311.489471,162.522461 313.274658,162.927231 
	C333.898499,167.603302 354.445740,172.616455 375.060699,177.333099 
	C377.464294,177.883041 380.655182,178.036743 382.595856,176.883942 
	C385.877167,174.934708 388.693420,174.846741 391.893250,176.344177 
z"/>
<path fill="#FF0101" opacity="1.000000" stroke="none" 
	d="
M280.158630,112.233337 
	C280.577881,112.397324 280.997101,112.561310 281.628967,112.760971 
	C281.841614,112.796661 281.924591,113.090569 282.012329,113.426132 
	C282.858093,113.842880 283.616180,113.924080 284.697144,114.135941 
	C285.708862,114.369530 286.397644,114.472458 287.265198,114.910919 
	C289.297791,115.847160 291.113678,116.642120 293.012421,117.013145 
	C299.412354,118.263741 305.841736,119.363655 312.629578,120.690430 
	C317.970856,121.943230 322.942444,123.026810 328.079987,124.412361 
	C330.596039,124.950043 332.946136,125.185745 335.296204,125.421448 
	C334.845001,123.346924 334.698761,121.136360 333.852203,119.238159 
	C333.087372,117.523216 331.556915,116.149712 330.286133,114.275467 
	C326.160950,108.595932 322.113770,103.266586 317.888458,97.731369 
	C317.363403,97.106071 317.016449,96.686646 316.733948,95.921616 
	C313.767120,92.851341 310.735840,90.126678 307.704559,87.402008 
	C307.704559,87.402016 307.925140,87.078033 307.883698,86.875336 
	C301.690063,82.325348 295.537842,77.978058 289.204620,73.342056 
	C286.031250,72.181099 283.038879,71.308861 279.725433,70.320885 
	C278.959534,70.110489 278.514709,70.015846 278.020935,69.590500 
	C276.970001,69.034615 275.968079,68.809425 274.582092,68.429962 
	C273.095764,68.248833 271.993469,68.221985 270.616394,67.917435 
	C261.891235,66.888184 253.440826,66.136642 244.637360,65.258492 
	C243.791214,65.187996 243.298126,65.244102 242.553223,64.996078 
	C238.186218,64.722702 234.071014,64.753441 229.636597,64.745346 
	C228.678421,64.754402 228.039459,64.802307 227.170471,64.528320 
	C223.154907,64.419777 219.369354,64.633125 215.233459,64.781479 
	C213.935501,64.744759 212.987915,64.773041 211.734680,64.587357 
	C209.665161,64.826515 207.901291,65.279633 205.741425,65.680382 
	C203.218948,65.878227 201.092484,66.128441 198.856659,66.080597 
	C197.779755,66.123589 196.812195,66.464645 195.482819,66.846817 
	C194.406494,67.024445 193.692017,67.160957 192.864532,66.996956 
	C191.823227,67.118866 190.894943,67.541283 189.620926,68.010574 
	C188.592239,68.196198 187.909256,68.334953 186.835678,68.342392 
	C180.322052,70.193199 173.938690,71.606628 168.126419,74.267502 
	C152.672455,81.342377 136.528168,87.421577 124.924561,100.843971 
	C123.424522,102.579117 121.355431,103.808487 119.675125,105.403984 
	C111.374634,113.285469 102.550804,120.716606 95.043709,129.297104 
	C90.117393,134.927826 86.557823,141.985596 83.392891,148.867264 
	C79.476097,157.383728 76.601669,166.379593 73.218506,175.381409 
	C73.160103,175.594482 73.008362,176.009476 72.701347,176.013092 
	C71.984985,176.019608 71.575638,176.022491 71.166290,176.025391 
	C71.111160,170.004837 69.660927,163.571274 71.295258,158.050888 
	C74.560616,147.021301 71.826096,134.710129 78.722626,124.568352 
	C79.053589,124.081657 79.067657,123.253418 78.972969,122.622704 
	C77.940704,115.746979 80.783997,110.468925 84.808777,105.028694 
	C89.691093,98.429344 93.075485,90.743584 97.661263,83.898544 
	C107.250961,69.584351 119.256828,57.591667 132.818222,46.882530 
	C145.308472,37.019241 159.409760,30.264771 173.484070,23.359390 
	C177.329712,21.472580 181.748352,20.733335 185.927948,19.552086 
	C192.599121,17.666658 199.193680,15.219202 205.999390,14.180291 
	C213.232117,13.076191 220.673157,13.069672 228.022995,13.073459 
	C235.664795,13.077396 243.443726,12.882271 250.914551,14.190838 
	C261.178558,15.988651 271.407349,18.528234 281.285187,21.841228 
	C291.615967,25.306124 301.892761,29.353762 311.480316,34.479874 
	C319.205048,38.609989 326.189941,44.347549 332.912628,50.066055 
	C339.801117,55.925617 346.366913,62.281219 352.339600,69.066139 
	C357.729828,75.189415 362.124664,82.188499 366.965607,88.796127 
	C367.712067,89.815010 368.496918,90.805756 369.906860,92.650612 
	C373.085388,78.612106 375.933746,65.523369 379.056122,52.500328 
	C380.244690,47.543018 382.225952,42.779850 383.532379,37.845192 
	C384.321625,34.864067 384.403229,31.702944 384.996674,28.660517 
	C385.547150,25.838724 385.850708,22.777298 387.229950,20.376991 
	C388.126556,18.816587 390.973450,17.123213 392.570984,17.432072 
	C400.266754,18.919891 407.840973,21.043900 415.446442,22.988626 
	C421.931213,24.646791 428.399872,26.368130 435.634216,28.259880 
	C434.688599,32.710686 433.872559,36.662029 433.007111,40.602524 
	C431.020386,49.648670 429.020233,58.691910 427.005524,67.731873 
	C425.004089,76.712128 423.135468,85.725975 420.919312,94.653275 
	C418.650726,103.791840 415.955658,112.823654 413.586273,121.938324 
	C411.182098,131.186874 408.900726,140.468262 406.657135,149.757355 
	C405.372559,155.075699 403.551758,160.404617 403.301117,165.790619 
	C403.079620,170.550522 399.958740,171.673355 396.997040,173.501328 
	C395.557953,174.389511 394.068787,175.196518 392.247742,176.192230 
	C388.693420,174.846741 385.877167,174.934708 382.595856,176.883942 
	C380.655182,178.036743 377.464294,177.883041 375.060699,177.333099 
	C354.445740,172.616455 333.898499,167.603302 313.274658,162.927231 
	C311.489471,162.522461 309.300018,163.900497 306.657471,164.725525 
	C302.572388,164.002579 299.168579,162.822540 295.674957,162.047485 
	C289.858551,160.757080 283.925354,159.963379 278.150757,158.522125 
	C271.885498,156.958420 265.811646,154.612427 259.530975,153.130310 
	C253.802979,151.778595 247.909882,151.126526 240.716782,149.939560 
	C242.245255,142.709488 243.581161,136.390366 244.917084,130.071228 
	C244.917084,130.071228 244.894409,129.903152 245.322540,129.906723 
	C249.989975,126.852112 255.094986,124.496239 258.273834,120.577766 
	C263.576355,114.041458 268.974213,109.683243 277.787659,112.646957 
	C277.910889,112.688393 278.095612,112.546867 278.585205,112.558167 
	C279.332031,112.494835 279.745331,112.364090 280.158630,112.233337 
z"/>
<path fill="#FFCECE" opacity="1.000000" stroke="none" 
	d="
M73.008362,176.009476 
	C73.008362,176.009476 73.160103,175.594482 73.538300,175.295502 
	C74.913979,173.332626 75.911476,171.668716 76.908974,170.004822 
	C77.575554,175.144821 74.965919,180.081116 71.158524,180.202194 
	C70.978897,179.487274 71.011024,179.051834 71.405914,178.243164 
	C72.181908,177.249802 72.595131,176.629639 73.008362,176.009476 
z"/>
<path fill="#FF7272" opacity="1.000000" stroke="none" 
	d="
M72.701340,176.013092 
	C72.595131,176.629639 72.181908,177.249802 71.461708,177.920532 
	C71.109108,177.537643 71.063477,177.104172 71.092072,176.348053 
	C71.575638,176.022491 71.984985,176.019608 72.701340,176.013092 
z"/>

<path fill="#FF7272" opacity="1.000000" stroke="none" 
	d="
M76.964302,169.664368 
	C75.911476,171.668716 74.913979,173.332626 73.596695,175.082428 
	C76.601669,166.379593 79.476097,157.383728 83.392891,148.867264 
	C86.557823,141.985596 90.117393,134.927826 95.043709,129.297104 
	C102.550804,120.716606 111.374634,113.285469 119.675125,105.403984 
	C121.355431,103.808487 123.424522,102.579117 124.924561,100.843971 
	C136.528168,87.421577 152.672455,81.342377 168.126419,74.267502 
	C173.938690,71.606628 180.322052,70.193199 186.695740,68.650391 
	C184.630173,70.053864 182.313934,71.018013 179.997711,71.982155 
	C177.183258,73.185249 174.368805,74.388344 170.892273,75.770920 
	C162.085907,80.447960 154.026260,85.108467 145.772949,89.396141 
	C137.909897,93.481079 130.441772,97.909973 125.112396,105.289101 
	C123.984749,106.850449 122.058792,107.816490 120.583794,109.148857 
	C112.737640,116.236259 104.917320,123.352257 97.095619,130.466660 
	C96.986580,130.565842 96.975349,130.772552 96.918472,130.929062 
	C95.345406,133.050217 93.772354,135.171371 91.767715,137.743713 
	C90.886055,139.127075 90.435966,140.059280 89.985878,140.991470 
	C87.532745,145.944397 85.079613,150.897339 82.266434,156.370056 
	C81.321159,158.284882 80.735939,159.679916 80.150719,161.074966 
	C79.982361,161.697968 79.814003,162.320984 79.314827,163.414337 
	C78.732140,164.624283 78.480270,165.363892 78.228401,166.103500 
	C77.825478,167.176971 77.422554,168.250443 76.964302,169.664368 
z"/>
<path fill="#FFCECE" opacity="1.000000" stroke="none" 
	d="
M180.225006,72.247719 
	C182.313934,71.018013 184.630173,70.053864 187.086334,68.781723 
	C187.909256,68.334953 188.592239,68.196198 189.944733,68.119232 
	C191.402008,67.886497 192.189774,67.591988 192.977524,67.297470 
	C193.692017,67.160957 194.406494,67.024445 195.799927,66.999710 
	C197.307907,66.867210 198.136963,66.622932 198.966003,66.378662 
	C201.092484,66.128441 203.218948,65.878227 206.032135,65.891304 
	C208.462738,66.152466 210.206619,66.150337 212.290741,66.382538 
	C218.448257,66.491913 224.265549,66.366951 230.455322,66.247086 
	C232.073532,66.225449 233.319244,66.198723 234.783401,66.512466 
	C238.340240,67.144295 241.678635,67.435646 245.389435,67.818542 
	C246.525894,67.901009 247.289978,67.891930 248.244507,68.148773 
	C249.649261,68.331993 250.863525,68.249275 252.422791,68.204987 
	C253.691620,68.222481 254.615479,68.201546 255.749817,68.511772 
	C258.676941,68.968842 261.393555,69.094757 264.480896,69.244904 
	C266.088135,69.240807 267.324646,69.212479 268.757141,69.496246 
	C270.989014,69.933014 273.024902,70.057693 275.441650,70.205231 
	C276.571655,70.125793 277.320770,70.023499 278.069916,69.921196 
	C278.514709,70.015846 278.959534,70.110489 279.872620,70.546982 
	C281.040985,71.409393 281.741058,71.929962 282.441162,72.450531 
	C279.208710,72.932304 275.945312,73.979362 272.748871,73.804115 
	C251.975372,72.665268 231.231003,70.796715 210.446442,70.144531 
	C200.482986,69.831886 190.452454,71.656570 180.225006,72.247719 
z"/>
<path fill="#FFCECE" opacity="1.000000" stroke="none" 
	d="
M97.312920,130.969391 
	C96.975349,130.772552 96.986580,130.565842 97.095619,130.466660 
	C104.917320,123.352257 112.737640,116.236259 120.583794,109.148857 
	C122.058792,107.816490 123.984749,106.850449 125.112396,105.289101 
	C130.441772,97.909973 137.909897,93.481079 145.772949,89.396141 
	C154.026260,85.108467 162.085907,80.447960 170.589508,75.936325 
	C166.965652,78.937325 163.161041,82.233475 158.958405,84.903038 
	C152.284424,89.142433 145.345764,92.965340 138.515594,96.958435 
	C137.810318,97.370758 136.954254,97.608978 136.382416,98.153130 
	C127.816315,106.304649 119.481064,114.712784 110.656731,122.572403 
	C106.852898,125.960388 102.054146,128.231323 97.312920,130.969391 
z"/>
<path fill="#FF6E6E" opacity="1.000000" stroke="none" 
	d="
M278.251648,112.490738 
	C278.095612,112.546867 277.910889,112.688393 277.787659,112.646957 
	C268.974213,109.683243 263.576355,114.041458 258.273834,120.577766 
	C255.094986,124.496239 249.989975,126.852112 245.400040,129.872299 
	C246.351089,128.111649 247.652771,126.388969 249.287399,124.104805 
	C251.350845,119.464241 252.794922,115.224419 254.950470,111.383926 
	C255.833374,109.810883 258.249359,108.188713 259.975189,108.180832 
	C264.024994,108.162323 268.079163,109.103973 272.131561,109.656982 
	C272.542389,109.759392 272.953217,109.861801 273.878784,110.253098 
	C275.679535,111.191582 276.965607,111.841164 278.251648,112.490738 
z"/>
<path fill="#FFCECE" opacity="1.000000" stroke="none" 
	d="
M272.003967,109.326439 
	C268.079163,109.103973 264.024994,108.162323 259.975189,108.180832 
	C258.249359,108.188713 255.833374,109.810883 254.950470,111.383926 
	C252.794922,115.224419 251.350845,119.464241 249.355118,123.776756 
	C250.564346,118.097054 251.937241,112.154137 253.649582,106.310684 
	C253.850067,105.626564 256.039673,104.957260 257.106567,105.192139 
	C262.068481,106.284531 266.959778,107.697586 272.003967,109.326439 
z"/>
<path fill="#FFCECE" opacity="1.000000" stroke="none" 
	d="
M327.914001,124.110390 
	C322.942444,123.026810 317.970856,121.943230 312.464905,120.385635 
	C309.289215,118.987907 306.647888,118.064186 304.006561,117.140472 
	C307.782745,117.649658 311.588745,118.001442 315.327393,118.709038 
	C319.716400,119.539719 324.029358,120.772392 328.418732,121.600639 
	C329.218964,121.751648 330.227386,120.799530 331.593231,120.142868 
	C332.663116,121.070473 333.279480,122.211838 334.304779,124.110390 
	C331.453033,124.110390 329.683502,124.110390 327.914001,124.110390 
z"/>
<path fill="#FF6F6F" opacity="1.000000" stroke="none" 
	d="
M303.682373,117.109528 
	C306.647888,118.064186 309.289215,118.987907 312.095215,120.216415 
	C305.841736,119.363655 299.412354,118.263741 293.012421,117.013145 
	C291.113678,116.642120 289.297791,115.847160 287.524719,114.695099 
	C289.449158,114.310608 291.292816,114.477455 293.136475,114.644302 
	C293.546204,114.749329 293.955963,114.854355 294.917114,115.261276 
	C297.674438,115.977287 299.880310,116.391388 302.086182,116.805489 
	C302.510193,116.896523 302.934174,116.987556 303.682373,117.109528 
z"/>
<path fill="#FF6E6E" opacity="1.000000" stroke="none" 
	d="
M289.385651,73.630768 
	C295.537842,77.978058 301.690063,82.325348 307.758972,87.026505 
	C307.552490,87.505753 307.429291,87.631119 306.907654,87.483917 
	C305.702698,86.766647 304.896271,86.321953 304.089813,85.877243 
	C303.009094,84.918167 301.928345,83.959091 300.458618,82.589561 
	C299.383362,81.781570 298.697083,81.384041 298.010803,80.986511 
	C298.010803,80.986511 298.000000,81.000000 297.895264,80.689926 
	C296.874237,79.897614 295.957947,79.415375 295.041687,78.933136 
	C295.041687,78.933136 294.721924,78.752182 294.423157,78.415253 
	C293.425293,77.705429 292.726196,77.332542 292.027130,76.959656 
	C291.578827,76.643005 291.130554,76.326355 290.302948,75.697266 
	C289.568329,74.982773 289.213013,74.580711 288.987915,74.039963 
	C289.118134,73.901283 289.385651,73.630768 289.385651,73.630768 
z"/>
<path fill="#FF6E6E" opacity="1.000000" stroke="none" 
	d="
M318.066559,97.937241 
	C322.113770,103.266586 326.160950,108.595932 330.146240,114.412476 
	C330.084320,114.899666 329.800751,115.165146 329.589111,114.996605 
	C328.928833,114.541794 328.480255,114.255516 328.031647,113.969246 
	C328.031647,113.969246 328.000427,114.000305 328.011292,113.671669 
	C327.476105,112.764626 326.930084,112.186211 326.384033,111.607796 
	C325.764679,110.525665 325.145325,109.443542 324.271179,107.844627 
	C323.348175,106.547096 322.679962,105.766350 322.011719,104.985611 
	C321.929626,104.667961 321.770111,104.395660 321.290649,103.723488 
	C320.459320,102.746346 319.870544,102.214439 319.281738,101.682526 
	C319.012177,101.219460 318.742584,100.756393 318.256226,99.793213 
	C318.048523,98.841148 318.057526,98.389198 318.066559,97.937241 
z"/>
<path fill="#FF6E6E" opacity="1.000000" stroke="none" 
	d="
M328.079987,124.412361 
	C329.683502,124.110390 331.453033,124.110390 334.304779,124.110390 
	C333.279480,122.211838 332.663116,121.070473 331.747314,119.769272 
	C331.447845,119.609436 331.294342,119.259880 331.184753,118.755997 
	C330.650360,117.223122 330.225555,116.194138 329.800751,115.165146 
	C329.800751,115.165146 330.084320,114.899666 330.224213,114.762650 
	C331.556915,116.149712 333.087372,117.523216 333.852203,119.238159 
	C334.698761,121.136360 334.845001,123.346924 335.296204,125.421448 
	C332.946136,125.185745 330.596039,124.950043 328.079987,124.412361 
z"/>
<path fill="#FFCECE" opacity="1.000000" stroke="none" 
	d="
M293.013184,114.323151 
	C291.292816,114.477455 289.449158,114.310608 287.345947,114.359573 
	C286.397644,114.472458 285.708862,114.369530 284.557770,113.886368 
	C283.371826,113.367607 282.648224,113.229088 281.924591,113.090569 
	C281.924591,113.090569 281.841614,112.796661 281.971222,112.715904 
	C283.882568,112.412277 285.712616,111.831139 287.432983,112.063232 
	C289.305054,112.315788 291.075256,113.323509 293.013184,114.323151 
z"/>
<path fill="#FF6E6E" opacity="1.000000" stroke="none" 
	d="
M307.695190,87.743347 
	C310.735840,90.126678 313.767120,92.851341 316.481079,96.093491 
	C316.018799,96.754631 315.873779,96.898277 315.728760,97.041939 
	C313.047760,94.056190 310.366791,91.070435 307.695190,87.743347 
z"/>
<path fill="#FF6E6E" opacity="1.000000" stroke="none" 
	d="
M282.768616,72.546036 
	C281.741058,71.929962 281.040985,71.409393 280.193726,70.662727 
	C283.038879,71.308861 286.031250,72.181099 289.204620,73.342049 
	C289.385651,73.630768 289.118134,73.901283 288.668213,74.001328 
	C287.791138,74.111809 287.363922,74.122238 286.936737,74.132675 
	C285.656525,73.635628 284.376282,73.138588 282.768616,72.546036 
z"/>
<path fill="#FFCECE" opacity="1.000000" stroke="none" 
	d="
M278.585205,112.558167 
	C276.965607,111.841164 275.679535,111.191582 274.195740,110.278290 
	C276.045197,110.537354 278.092377,111.060120 280.149109,111.908112 
	C279.745331,112.364090 279.332031,112.494835 278.585205,112.558167 
z"/>
<path fill="#FFCECE" opacity="1.000000" stroke="none" 
	d="
M301.992310,116.470383 
	C299.880310,116.391388 297.674438,115.977287 295.234283,115.282356 
	C297.299500,115.379440 299.598969,115.757355 301.992310,116.470383 
z"/>
<path fill="#FFCECE" opacity="1.000000" stroke="none" 
	d="
M329.589111,114.996605 
	C330.225555,116.194138 330.650360,117.223122 331.096039,118.586983 
	C330.069214,117.518410 329.021545,116.114960 328.002747,114.340378 
	C328.480255,114.255516 328.928833,114.541794 329.589111,114.996605 
z"/>
<path fill="#FFCECE" opacity="1.000000" stroke="none" 
	d="
M80.490227,160.997284 
	C80.735939,159.679916 81.321159,158.284882 82.179520,156.720703 
	C81.911682,158.007584 81.370712,159.463577 80.490227,160.997284 
z"/>
<path fill="#FFCECE" opacity="1.000000" stroke="none" 
	d="
M315.777954,97.326988 
	C315.873779,96.898277 316.018799,96.754631 316.416656,96.439102 
	C317.016449,96.686646 317.363403,97.106071 317.888458,97.731369 
	C318.057526,98.389198 318.048523,98.841148 318.037231,99.634895 
	C317.299011,99.188477 316.563110,98.400261 315.777954,97.326988 
z"/>
<path fill="#FFCECE" opacity="1.000000" stroke="none" 
	d="
M90.338928,140.947754 
	C90.435966,140.059280 90.886055,139.127075 91.621193,138.046356 
	C91.501495,138.899887 91.096741,139.901962 90.338928,140.947754 
z"/>
<path fill="#FFCECE" opacity="1.000000" stroke="none" 
	d="
M304.081970,86.186295 
	C304.896271,86.321953 305.702698,86.766647 306.651428,87.546021 
	C305.887146,87.418907 304.980652,86.957130 304.081970,86.186295 
z"/>
<path fill="#FFCECE" opacity="1.000000" stroke="none" 
	d="
M321.989502,105.342453 
	C322.679962,105.766350 323.348175,106.547096 324.028503,107.650269 
	C323.349518,107.214890 322.658386,106.457092 321.989502,105.342453 
z"/>
<path fill="#FFCECE" opacity="1.000000" stroke="none" 
	d="
M295.070923,79.285179 
	C295.957947,79.415375 296.874237,79.897614 297.901031,80.684052 
	C297.041077,80.537910 296.070618,80.087570 295.070923,79.285179 
z"/>
<path fill="#FFCECE" opacity="1.000000" stroke="none" 
	d="
M287.013916,74.471207 
	C287.363922,74.122238 287.791138,74.111809 288.538025,74.140015 
	C289.213013,74.580711 289.568329,74.982773 290.031006,75.630531 
	C289.122589,75.520721 288.106842,75.165230 287.013916,74.471207 
z"/>
<path fill="#FFCECE" opacity="1.000000" stroke="none" 
	d="
M326.289124,111.956879 
	C326.930084,112.186211 327.476105,112.764626 328.028625,113.657288 
	C327.421478,113.416351 326.807861,112.861153 326.289124,111.956879 
z"/>
<path fill="#FFCECE" opacity="1.000000" stroke="none" 
	d="
M319.221680,102.037720 
	C319.870544,102.214439 320.459320,102.746346 321.094421,103.586861 
	C320.481018,103.394615 319.821320,102.893761 319.221680,102.037720 
z"/>
<path fill="#FFCECE" opacity="1.000000" stroke="none" 
	d="
M298.040283,81.329018 
	C298.697083,81.384041 299.383362,81.781570 300.164856,82.480286 
	C299.529968,82.411484 298.799866,82.041504 298.040283,81.329018 
z"/>
<path fill="#FFCECE" opacity="1.000000" stroke="none" 
	d="
M78.553329,166.008682 
	C78.480270,165.363892 78.732140,164.624283 79.251343,163.730835 
	C79.305199,164.355942 79.091728,165.134903 78.553329,166.008682 
z"/>
<path fill="#FFCECE" opacity="1.000000" stroke="none" 
	d="
M292.059998,77.311462 
	C292.726196,77.332542 293.425293,77.705429 294.246216,78.365791 
	C293.609680,78.323265 292.851257,77.993263 292.059998,77.311462 
z"/>
<path fill="#FF6E6E" opacity="1.000000" stroke="none" 
	d="
M248.054047,67.882858 
	C247.289978,67.891930 246.525894,67.901009 245.385147,67.527397 
	C245.002441,66.558167 244.996429,65.971634 244.990417,65.385094 
	C253.440826,66.136642 261.891235,66.888184 270.400269,68.155701 
	C269.826355,68.842491 269.193756,69.013313 268.561188,69.184143 
	C267.324646,69.212479 266.088135,69.240807 264.208740,68.911331 
	C260.890350,68.429230 258.214844,68.304924 255.539337,68.180618 
	C254.615479,68.201546 253.691620,68.222481 252.225983,67.919281 
	C250.474136,67.691048 249.264099,67.786949 248.054047,67.882858 
z"/>
<path fill="#FF7272" opacity="1.000000" stroke="none" 
	d="
M230.082840,66.241997 
	C224.265549,66.366951 218.448257,66.491913 212.315338,66.045471 
	C212.013229,65.249825 212.026779,65.025574 212.040314,64.801315 
	C212.987915,64.773041 213.935501,64.744759 215.734680,64.831619 
	C220.190994,64.914574 223.795731,64.882393 227.400482,64.850212 
	C228.039459,64.802307 228.678421,64.754402 229.664154,65.110703 
	C230.034882,65.757278 230.058868,65.999634 230.082840,66.241997 
z"/>
<path fill="#FF6E6E" opacity="1.000000" stroke="none" 
	d="
M230.455322,66.247086 
	C230.058868,65.999634 230.034882,65.757278 229.983368,65.149551 
	C234.071014,64.753441 238.186218,64.722702 242.257507,65.230133 
	C239.664032,65.902870 237.114502,66.037430 234.564957,66.171997 
	C233.319244,66.198723 232.073532,66.225449 230.455322,66.247086 
z"/>
<path fill="#FF6E6E" opacity="1.000000" stroke="none" 
	d="
M227.170471,64.528320 
	C223.795731,64.882393 220.190994,64.914574 216.085022,64.896614 
	C219.369354,64.633125 223.154907,64.419777 227.170471,64.528320 
z"/>
<path fill="#FF7272" opacity="1.000000" stroke="none" 
	d="
M234.783401,66.512466 
	C237.114502,66.037430 239.664032,65.902870 242.509308,65.534256 
	C243.298126,65.244102 243.791214,65.187996 244.637360,65.258492 
	C244.996429,65.971634 245.002441,66.558167 245.012756,67.435852 
	C241.678635,67.435646 238.340240,67.144295 234.783401,66.512466 
z"/>
<path fill="#FF7272" opacity="1.000000" stroke="none" 
	d="
M268.757141,69.496239 
	C269.193756,69.013313 269.826355,68.842491 270.675049,68.433403 
	C271.993469,68.221985 273.095764,68.248833 274.596436,68.692490 
	C275.016815,69.466980 275.038818,69.824677 275.060822,70.182365 
	C273.024902,70.057693 270.989014,69.933014 268.757141,69.496239 
z"/>
<path fill="#FF6E6E" opacity="1.000000" stroke="none" 
	d="
M211.734680,64.587357 
	C212.026779,65.025574 212.013229,65.249825 211.975098,65.811134 
	C210.206619,66.150337 208.462738,66.152466 206.428131,65.943672 
	C207.901291,65.279633 209.665161,64.826515 211.734680,64.587357 
z"/>
<path fill="#FF6E6E" opacity="1.000000" stroke="none" 
	d="
M198.856659,66.080597 
	C198.136963,66.622932 197.307907,66.867210 196.161743,66.958588 
	C196.812195,66.464645 197.779755,66.123589 198.856659,66.080597 
z"/>
<path fill="#FF6E6E" opacity="1.000000" stroke="none" 
	d="
M192.864532,66.996964 
	C192.189774,67.591988 191.402008,67.886497 190.290451,68.072357 
	C190.894943,67.541283 191.823227,67.118866 192.864532,66.996964 
z"/>
<path fill="#FF6E6E" opacity="1.000000" stroke="none" 
	d="
M275.441650,70.205231 
	C275.038818,69.824677 275.016815,69.466980 274.980469,68.846764 
	C275.968079,68.809425 276.970001,69.034615 278.020935,69.590500 
	C277.320770,70.023499 276.571655,70.125793 275.441650,70.205231 
z"/>
<path fill="#FF6E6E" opacity="1.000000" stroke="none" 
	d="
M282.012329,113.426132 
	C282.648224,113.229088 283.371826,113.367607 284.234863,113.755707 
	C283.616180,113.924080 282.858093,113.842880 282.012329,113.426132 
z"/>
<path fill="#FF7272" opacity="1.000000" stroke="none" 
	d="
M255.749817,68.511772 
	C258.214844,68.304924 260.890350,68.429230 263.838013,68.887100 
	C261.393555,69.094757 258.676941,68.968842 255.749817,68.511772 
z"/>
<path fill="#FF7272" opacity="1.000000" stroke="none" 
	d="
M248.244507,68.148781 
	C249.264099,67.786949 250.474136,67.691048 251.880997,67.880852 
	C250.863525,68.249275 249.649261,68.331993 248.244507,68.148781 
z"/>
</svg>